<?xml version="1.0" encoding="UTF-8"?>
<svg width="1347px" height="107px" viewBox="0 0 1347 107" version="1.1" xmlns="http://www.w3.org/2000/svg" xmlns:xlink="http://www.w3.org/1999/xlink">
    <!-- Generator: Sketch 3.8.1 (29687) - http://www.bohemiancoding.com/sketch -->
    <title>ONSDAGSMÄSSAN</title>
    <desc>Created with Sketch.</desc>
    <defs></defs>
    <g id="Page-1" stroke="none" stroke-width="1" fill="none" fill-rule="evenodd">
        <g id="Desktop-HD" transform="translate(-46.000000, -436.000000)" fill="#9BBCD0">
            <path d="M92.2881643,542.788563 C117.309402,542.788563 137.274535,523.730936 137.274535,497.542905 C137.274535,474.72561 122.235864,453.075109 92.2881643,453.075109 C65.581558,453.075109 46.135,472.910598 46.135,498.839342 C46.135,522.175211 63.5072585,542.788563 92.2881643,542.788563 L92.2881643,542.788563 Z M93.9735326,538.769608 C68.4337198,538.769608 59.099372,513.878013 59.099372,494.690743 C59.099372,466.298768 76.6012742,457.094064 90.084221,457.094064 C114.846172,457.094064 124.310163,480.170646 124.310163,501.56186 C124.310163,527.101673 109.530779,538.769608 93.9735326,538.769608 L93.9735326,538.769608 Z M249.526051,487.689982 C249.526051,481.726371 249.266764,465.65055 251.470707,460.983376 C251.989282,459.946226 254.582156,458.909076 258.730755,458.260857 L260.545767,458.00157 C261.32363,457.223708 261.32363,455.408696 260.28648,454.760477 C255.878594,455.019764 252.507857,455.149408 246.933177,455.149408 C242.006716,455.149408 237.598829,455.019764 231.635218,454.760477 C230.598068,455.149408 230.468424,457.223708 231.37593,458.00157 L233.579874,458.260857 C238.765623,458.909076 240.839922,459.686938 241.617784,460.853732 C244.081015,464.743043 244.210659,481.596727 244.210659,487.689982 L244.210659,515.433738 C244.210659,518.156256 244.210659,520.230556 243.692084,520.878774 L243.432796,520.878774 C237.339542,514.655876 230.986999,507.395827 222.041583,497.413261 L209.466142,483.282095 C205.187899,478.485278 189.88994,461.372307 187.297066,454.760477 C185.611697,455.019764 183.407754,455.149408 181.333455,455.149408 C178.999868,455.149408 172.128751,455.149408 166.683714,454.760477 C165.646565,455.279052 165.646565,457.223708 166.424427,458.00157 L168.62837,458.260857 C171.739819,458.649789 174.851269,459.557295 176.666281,461.372307 C179.388799,464.354112 179.518443,467.07663 179.518443,470.706655 L179.518443,508.17369 C179.518443,514.396588 179.648086,530.213122 177.833074,534.880296 C177.184856,536.306377 175.110556,537.084239 172.128751,537.47317 L168.62837,537.862101 C167.850508,538.639964 167.980151,540.454976 168.887658,541.103194 C173.425188,540.843907 176.925568,540.714263 182.370604,540.714263 C187.167422,540.714263 191.704952,540.843907 197.53892,541.103194 C198.446426,540.454976 198.576069,538.899251 197.798207,537.862101 L193.779252,537.47317 C190.538159,537.213883 187.945284,536.436021 187.167422,535.00994 C184.963479,531.120628 184.833835,514.266944 184.833835,508.17369 L184.833835,479.911359 C184.833835,476.022047 184.963479,473.040242 185.482054,471.484517 L185.741341,471.484517 C188.463859,474.336679 197.279632,484.967464 200.780013,488.986419 L230.857356,523.212361 C242.136359,536.047089 245.896027,540.58462 247.451752,542.788563 C248.877833,542.788563 249.655695,542.140344 249.914982,541.362482 C249.526051,537.991745 249.526051,522.564143 249.526051,518.674831 L249.526051,487.689982 Z M341.29386,518.804475 C341.29386,506.488321 333.255949,498.968986 325.088395,493.91288 L314.716897,487.430694 C309.92008,484.448889 303.697181,479.003853 303.697181,471.484517 C303.697181,465.520906 306.419699,457.094064 319.124784,457.094064 C331.570581,457.094064 335.070961,465.520906 336.75633,471.743804 C337.404548,472.521667 339.478848,472.132736 339.997423,471.354873 C339.997423,465.909837 338.830629,458.649789 337.663836,455.538339 C336.626686,455.538339 334.811674,455.279052 333.126305,454.760477 C329.755569,453.852971 325.088395,453.075109 321.069439,453.075109 C304.215756,453.075109 294.622121,463.057675 294.622121,475.373829 C294.622121,486.004614 302.141456,493.394306 308.623642,497.672548 L320.939796,505.710459 C330.403787,511.803714 331.570581,518.156256 331.570581,523.86058 C331.570581,531.639203 326.255188,538.769608 315.365116,538.769608 C300.326444,538.769608 295.011052,526.064523 293.066396,519.452693 C292.547821,518.674831 290.603165,518.934118 289.954947,519.841624 C290.214234,525.934879 291.899602,535.139583 293.455327,537.991745 C295.918558,539.417826 302.789675,542.788563 313.679747,542.788563 C330.533431,542.788563 341.29386,533.065284 341.29386,518.804475 L341.29386,518.804475 Z M384.574917,521.267705 C384.574917,534.880296 384.31563,536.436021 376.796294,537.47317 L373.814488,537.862101 C373.036626,538.639964 373.295913,540.714263 374.073776,541.103194 C380.16703,540.843907 384.834204,540.714263 390.279241,540.714263 C394.816771,540.714263 403.113969,541.751413 411.411167,541.751413 C421.393733,541.751413 432.024518,540.066045 440.45136,535.528515 C455.230744,527.490604 463.139011,513.359438 463.139011,496.894686 C463.139011,479.781715 454.323238,465.002331 436.821336,458.649789 C428.394494,455.538339 419.18979,454.760477 408.299718,454.760477 C397.280002,454.760477 386.77886,455.149408 375.759144,455.797627 C374.462707,456.316202 374.592351,458.390501 375.6295,459.03872 L378.481662,459.427651 C383.926698,460.205513 384.574917,462.928031 384.574917,472.003092 L384.574917,521.267705 Z M395.205702,470.447367 C395.205702,464.6134 395.464989,461.372307 396.502139,460.594444 C397.539289,459.816582 401.687888,458.779432 409.336867,458.779432 C443.303522,458.779432 450.174639,482.893164 450.174639,497.153973 C450.174639,521.267705 438.895636,537.732458 413.744754,537.732458 C405.5772,537.732458 400.650738,536.436021 397.798576,532.417065 C395.594633,529.305616 395.205702,525.157017 395.205702,518.2859 L395.205702,470.447367 Z M547.517128,528.268466 C548.554277,531.379915 549.202496,533.713502 549.202496,535.139583 C549.202496,536.436021 547.387484,537.213883 544.664966,537.47317 L540.905298,537.862101 C539.997792,538.51032 540.127436,540.58462 541.164585,541.103194 C544.924253,540.973551 549.850715,540.714263 556.073613,540.714263 C561.907581,540.714263 566.445111,540.843907 571.760503,541.103194 C572.408722,540.58462 572.668009,538.51032 571.760503,537.862101 L568.260123,537.47317 C562.685443,536.824952 561.000074,534.880296 557.240407,523.730936 L539.479217,471.614161 C537.534561,465.909837 535.460262,459.946226 533.774893,454.241902 C533.515606,453.334396 532.6081,453.075109 531.830238,453.075109 C530.404157,454.760477 528.200213,457.094064 525.088764,458.00157 C525.477695,460.07587 524.699833,462.5391 522.884821,467.206274 L509.661161,502.210079 C504.216125,516.730175 500.586101,525.157017 498.252514,531.120628 C496.437502,535.787802 493.58534,537.213883 490.473891,537.47317 L486.195648,537.862101 C485.417786,538.51032 485.677073,540.58462 486.454936,541.103194 C489.955316,540.973551 494.62249,540.714263 498.900733,540.714263 C504.993988,540.843907 509.012943,540.843907 512.38368,541.103194 C513.550473,540.58462 513.550473,538.51032 512.642967,537.862101 L508.364724,537.47317 C505.253275,537.213883 504.605056,536.436021 504.605056,534.880296 C504.605056,533.454215 505.512562,529.953835 507.457218,524.119867 L511.994748,510.507277 C512.902254,507.784758 513.680117,507.395827 516.92121,507.395827 L536.497411,507.395827 C540.386723,507.395827 540.905298,507.784758 541.812804,510.63692 L547.517128,528.268466 Z M524.310902,476.540622 C525.736983,472.65131 527.03342,469.539861 527.422351,468.891643 L527.681638,468.891643 C528.459501,470.447367 529.626294,473.947748 530.663444,477.059197 L537.664205,498.191123 C538.830998,501.691504 538.571711,502.210079 534.812043,502.210079 L518.865866,502.210079 C515.235841,502.210079 515.106198,502.080435 516.143347,499.098629 L524.310902,476.540622 Z M672.214441,520.230556 C672.214441,513.618726 672.344085,509.988702 677.789121,509.340483 L679.86342,509.081196 C680.770926,508.303333 680.641283,506.358678 679.733777,505.840103 C675.455534,506.09939 671.047647,506.229034 665.991542,506.229034 C658.342563,506.229034 651.212158,506.09939 647.45249,505.840103 C646.544984,506.229034 646.415341,508.562621 647.45249,509.081196 L653.156814,509.729414 C661.194725,510.63692 661.583656,511.414783 661.583656,522.304855 L661.583656,527.490604 C661.583656,531.639203 660.935437,533.97279 660.287219,534.880296 C658.861138,537.084239 654.06432,538.769608 646.02641,538.769608 C619.968022,538.769608 607.133294,519.193406 607.133294,494.301812 C607.133294,474.855254 618.15301,456.96442 643.303891,456.96442 C656.527551,456.96442 666.25083,461.372307 669.880854,475.373829 C670.658716,476.151691 672.992303,476.022047 673.381234,474.984897 C672.214441,467.206274 671.436579,460.464801 671.436579,456.186558 C669.880854,456.445845 665.861899,455.538339 663.398668,455.019764 C661.194725,454.50119 654.323608,453.075109 646.933916,453.075109 C627.357714,453.075109 614.522986,459.168364 605.836856,468.243424 C597.798946,476.799909 594.168922,487.949269 594.168922,498.968986 C594.168922,510.377633 598.317521,520.619487 606.096144,528.39811 C616.07871,538.51032 630.209876,542.788563 645.637478,542.788563 C652.638239,542.788563 661.972587,541.232838 668.843704,539.417826 C671.306935,538.769608 673.640522,538.251033 675.196247,538.251033 C675.714821,537.862101 675.714821,537.084239 675.32589,536.695308 C672.992303,535.787802 672.214441,532.676353 672.214441,527.490604 L672.214441,520.230556 Z M761.648662,518.804475 C761.648662,506.488321 753.610752,498.968986 745.443197,493.91288 L735.0717,487.430694 C730.274882,484.448889 724.051984,479.003853 724.051984,471.484517 C724.051984,465.520906 726.774502,457.094064 739.479586,457.094064 C751.925383,457.094064 755.425764,465.520906 757.111132,471.743804 C757.759351,472.521667 759.83365,472.132736 760.352225,471.354873 C760.352225,465.909837 759.185432,458.649789 758.018638,455.538339 C756.981489,455.538339 755.166476,455.279052 753.481108,454.760477 C750.110371,453.852971 745.443197,453.075109 741.424242,453.075109 C724.570559,453.075109 714.976923,463.057675 714.976923,475.373829 C714.976923,486.004614 722.496259,493.394306 728.978445,497.672548 L741.294598,505.710459 C750.75859,511.803714 751.925383,518.156256 751.925383,523.86058 C751.925383,531.639203 746.609991,538.769608 735.719918,538.769608 C720.681247,538.769608 715.365854,526.064523 713.421199,519.452693 C712.902624,518.674831 710.957968,518.934118 710.309749,519.841624 C710.569037,525.934879 712.254405,535.139583 713.81013,537.991745 C716.273361,539.417826 723.144478,542.788563 734.03455,542.788563 C750.888234,542.788563 761.648662,533.065284 761.648662,518.804475 L761.648662,518.804475 Z M823.987347,476.151691 C819.968391,467.854493 816.727298,459.816582 817.245873,454.760477 C812.96763,455.149408 809.46725,455.149408 806.485444,455.149408 C803.244351,455.149408 800.132902,455.019764 796.24359,454.760477 C795.206441,455.279052 795.076797,457.223708 795.725016,458.00157 L797.799315,458.260857 C805.707582,459.298007 806.744732,461.242663 806.485444,469.410217 C806.226157,476.540622 805.707582,487.560338 805.059363,498.320767 C804.281501,511.155495 803.633282,518.2859 802.85542,526.842385 C802.077558,535.917446 800.262546,536.695308 794.81751,537.47317 L791.965348,537.862101 C791.187485,538.51032 791.446773,540.454976 792.224635,541.103194 C796.632522,540.843907 801.299696,540.714263 805.448295,540.714263 C810.374756,540.714263 815.430861,540.843907 819.838747,541.103194 C820.746254,540.714263 820.875897,538.639964 819.968391,537.862101 L815.04193,537.47317 C809.985825,537.084239 809.207962,535.00994 809.207962,525.416304 C809.207962,514.396588 809.726537,502.858297 810.115468,494.95003 C810.5044,487.430694 810.893331,479.911359 811.411906,471.873448 L811.671193,471.873448 C814.523355,477.837059 817.245873,484.578533 819.968391,490.542144 L831.636326,515.563382 C834.618132,521.915924 840.84103,534.621008 843.044973,541.492126 C843.304261,541.881057 843.952479,542.010701 844.211767,542.010701 C844.730342,542.010701 845.248917,541.881057 845.508204,541.492126 C847.841791,535.528515 853.675758,523.342005 859.509726,511.933358 L871.048017,489.245707 C873.640891,484.189601 878.567353,473.818104 879.474859,472.392023 L879.734146,472.392023 L880.123077,526.453454 C880.123077,534.750652 880.123077,536.824952 873.770535,537.47317 L870.010867,537.862101 C869.233005,538.639964 869.362648,540.454976 870.270155,541.103194 C875.585547,540.843907 881.419514,540.714263 885.957045,540.714263 C890.624219,540.714263 895.939611,540.843907 901.255004,541.103194 C902.16251,540.58462 902.292153,538.639964 901.514291,537.862101 L897.365692,537.47317 C891.272437,536.954595 891.402081,533.454215 891.01315,526.972029 C889.976,508.303333 889.846356,484.319245 889.587069,470.577011 C889.457425,461.50195 890.494575,459.03872 898.662129,458.260857 L901.384647,458.00157 C902.032866,457.482995 902.032866,455.279052 901.255004,454.760477 C897.236048,455.019764 892.957805,455.149408 889.716712,455.149408 C887.123838,455.149408 884.40132,455.149408 879.993433,454.760477 C879.734146,460.724088 875.974478,467.854493 870.140511,479.652071 L857.954001,504.414022 C854.712908,511.025851 851.471815,517.767325 847.971435,523.86058 L847.712147,523.86058 C844.600698,518.156256 841.748536,512.192645 838.766731,506.09939 L823.987347,476.151691 Z M984.984901,528.268466 C986.022051,531.379915 986.67027,533.713502 986.67027,535.139583 C986.67027,536.436021 984.855258,537.213883 982.13274,537.47317 L978.373072,537.862101 C977.465566,538.51032 977.595209,540.58462 978.632359,541.103194 C982.392027,540.973551 987.318488,540.714263 993.541387,540.714263 C999.375354,540.714263 1003.91288,540.843907 1009.22828,541.103194 C1009.8765,540.58462 1010.13578,538.51032 1009.22828,537.862101 L1005.7279,537.47317 C1000.15322,536.824952 998.467848,534.880296 994.70818,523.730936 L976.946991,471.614161 C975.002335,465.909837 972.928035,459.946226 971.242667,454.241902 C970.98338,453.334396 970.075874,453.075109 969.298011,453.075109 C967.87193,454.760477 965.667987,457.094064 962.556538,458.00157 C962.945469,460.07587 962.167607,462.5391 960.352595,467.206274 L947.128935,502.210079 C941.683899,516.730175 938.053875,525.157017 935.720288,531.120628 C933.905276,535.787802 931.053114,537.213883 927.941665,537.47317 L923.663422,537.862101 C922.88556,538.51032 923.144847,540.58462 923.922709,541.103194 C927.42309,540.973551 932.090264,540.714263 936.368506,540.714263 C942.461761,540.843907 946.480717,540.843907 949.851453,541.103194 C951.018247,540.58462 951.018247,538.51032 950.110741,537.862101 L945.832498,537.47317 C942.721049,537.213883 942.07283,536.436021 942.07283,534.880296 C942.07283,533.454215 942.980336,529.953835 944.924992,524.119867 L949.462522,510.507277 C950.370028,507.784758 951.147891,507.395827 954.388983,507.395827 L973.965185,507.395827 C977.854497,507.395827 978.373072,507.784758 979.280578,510.63692 L984.984901,528.268466 Z M961.778676,476.540622 C963.204756,472.65131 964.501194,469.539861 964.890125,468.891643 L965.149412,468.891643 C965.927275,470.447367 967.094068,473.947748 968.131218,477.059197 L975.131979,498.191123 C976.298772,501.691504 976.039485,502.210079 972.279817,502.210079 L956.333639,502.210079 C952.703615,502.210079 952.573971,502.080435 953.611121,499.098629 L961.778676,476.540622 Z M955.555777,450.611878 C959.574732,450.611878 962.167607,447.500429 962.167607,443.740761 C962.167607,440.370024 959.574732,436.74 955.555777,436.74 C951.536822,436.74 948.814304,440.24038 949.203235,444.000048 C949.203235,448.407935 951.536822,450.611878 955.555777,450.611878 L955.555777,450.611878 Z M980.965946,450.611878 C984.984901,450.611878 987.188845,447.500429 987.188845,443.740761 C987.188845,440.370024 984.984901,436.74 980.965946,436.74 C976.946991,436.74 974.224473,440.24038 974.224473,444.000048 C974.354116,448.407935 977.076634,450.611878 980.965946,450.611878 L980.965946,450.611878 Z M1083.88311,518.804475 C1083.88311,506.488321 1075.8452,498.968986 1067.67765,493.91288 L1057.30615,487.430694 C1052.50933,484.448889 1046.28644,479.003853 1046.28644,471.484517 C1046.28644,465.520906 1049.00895,457.094064 1061.71404,457.094064 C1074.15984,457.094064 1077.66022,465.520906 1079.34558,471.743804 C1079.9938,472.521667 1082.0681,472.132736 1082.58668,471.354873 C1082.58668,465.909837 1081.41988,458.649789 1080.25309,455.538339 C1079.21594,455.538339 1077.40093,455.279052 1075.71556,454.760477 C1072.34482,453.852971 1067.67765,453.075109 1063.65869,453.075109 C1046.80501,453.075109 1037.21138,463.057675 1037.21138,475.373829 C1037.21138,486.004614 1044.73071,493.394306 1051.2129,497.672548 L1063.52905,505.710459 C1072.99304,511.803714 1074.15984,518.156256 1074.15984,523.86058 C1074.15984,531.639203 1068.84444,538.769608 1057.95437,538.769608 C1042.9157,538.769608 1037.60031,526.064523 1035.65565,519.452693 C1035.13708,518.674831 1033.19242,518.934118 1032.5442,519.841624 C1032.80349,525.934879 1034.48886,535.139583 1036.04458,537.991745 C1038.50781,539.417826 1045.37893,542.788563 1056.269,542.788563 C1073.12269,542.788563 1083.88311,533.065284 1083.88311,518.804475 L1083.88311,518.804475 Z M1167.22408,518.804475 C1167.22408,506.488321 1159.18617,498.968986 1151.01862,493.91288 L1140.64712,487.430694 C1135.8503,484.448889 1129.6274,479.003853 1129.6274,471.484517 C1129.6274,465.520906 1132.34992,457.094064 1145.05501,457.094064 C1157.5008,457.094064 1161.00118,465.520906 1162.68655,471.743804 C1163.33477,472.521667 1165.40907,472.132736 1165.92764,471.354873 C1165.92764,465.909837 1164.76085,458.649789 1163.59406,455.538339 C1162.55691,455.538339 1160.7419,455.279052 1159.05653,454.760477 C1155.68579,453.852971 1151.01862,453.075109 1146.99966,453.075109 C1130.14598,453.075109 1120.55234,463.057675 1120.55234,475.373829 C1120.55234,486.004614 1128.07168,493.394306 1134.55386,497.672548 L1146.87002,505.710459 C1156.33401,511.803714 1157.5008,518.156256 1157.5008,523.86058 C1157.5008,531.639203 1152.18541,538.769608 1141.29534,538.769608 C1126.25667,538.769608 1120.94127,526.064523 1118.99662,519.452693 C1118.47804,518.674831 1116.53339,518.934118 1115.88517,519.841624 C1116.14446,525.934879 1117.82982,535.139583 1119.38555,537.991745 C1121.84878,539.417826 1128.7199,542.788563 1139.60997,542.788563 C1156.46365,542.788563 1167.22408,533.065284 1167.22408,518.804475 L1167.22408,518.804475 Z M1252.38006,528.268466 C1253.41721,531.379915 1254.06543,533.713502 1254.06543,535.139583 C1254.06543,536.436021 1252.25042,537.213883 1249.5279,537.47317 L1245.76823,537.862101 C1244.86072,538.51032 1244.99037,540.58462 1246.02752,541.103194 C1249.78719,540.973551 1254.71365,540.714263 1260.93655,540.714263 C1266.77051,540.714263 1271.30804,540.843907 1276.62344,541.103194 C1277.27165,540.58462 1277.53094,538.51032 1276.62344,537.862101 L1273.12306,537.47317 C1267.54838,536.824952 1265.86301,534.880296 1262.10334,523.730936 L1244.34215,471.614161 C1242.39749,465.909837 1240.32319,459.946226 1238.63783,454.241902 C1238.37854,453.334396 1237.47103,453.075109 1236.69317,453.075109 C1235.26709,454.760477 1233.06315,457.094064 1229.9517,458.00157 C1230.34063,460.07587 1229.56277,462.5391 1227.74775,467.206274 L1214.52409,502.210079 C1209.07906,516.730175 1205.44903,525.157017 1203.11545,531.120628 C1201.30043,535.787802 1198.44827,537.213883 1195.33682,537.47317 L1191.05858,537.862101 C1190.28072,538.51032 1190.54001,540.58462 1191.31787,541.103194 C1194.81825,540.973551 1199.48542,540.714263 1203.76366,540.714263 C1209.85692,540.843907 1213.87588,540.843907 1217.24661,541.103194 C1218.41341,540.58462 1218.41341,538.51032 1217.5059,537.862101 L1213.22766,537.47317 C1210.11621,537.213883 1209.46799,536.436021 1209.46799,534.880296 C1209.46799,533.454215 1210.37549,529.953835 1212.32015,524.119867 L1216.85768,510.507277 C1217.76519,507.784758 1218.54305,507.395827 1221.78414,507.395827 L1241.36034,507.395827 C1245.24966,507.395827 1245.76823,507.784758 1246.67574,510.63692 L1252.38006,528.268466 Z M1229.17383,476.540622 C1230.59991,472.65131 1231.89635,469.539861 1232.28528,468.891643 L1232.54457,468.891643 C1233.32243,470.447367 1234.48923,473.947748 1235.52638,477.059197 L1242.52714,498.191123 C1243.69393,501.691504 1243.43464,502.210079 1239.67498,502.210079 L1223.7288,502.210079 C1220.09877,502.210079 1219.96913,502.080435 1221.00628,499.098629 L1229.17383,476.540622 Z M1380.96668,487.689982 C1380.96668,481.726371 1380.7074,465.65055 1382.91134,460.983376 C1383.42992,459.946226 1386.02279,458.909076 1390.17139,458.260857 L1391.9864,458.00157 C1392.76426,457.223708 1392.76426,455.408696 1391.72711,454.760477 C1387.31923,455.019764 1383.94849,455.149408 1378.37381,455.149408 C1373.44735,455.149408 1369.03946,455.019764 1363.07585,454.760477 C1362.0387,455.149408 1361.90906,457.223708 1362.81656,458.00157 L1365.02051,458.260857 C1370.20626,458.909076 1372.28056,459.686938 1373.05842,460.853732 C1375.52165,464.743043 1375.65129,481.596727 1375.65129,487.689982 L1375.65129,515.433738 C1375.65129,518.156256 1375.65129,520.230556 1375.13272,520.878774 L1374.87343,520.878774 C1368.78018,514.655876 1362.42763,507.395827 1353.48222,497.413261 L1340.90678,483.282095 C1336.62853,478.485278 1321.33057,461.372307 1318.7377,454.760477 C1317.05233,455.019764 1314.84839,455.149408 1312.77409,455.149408 C1310.4405,455.149408 1303.56938,455.149408 1298.12435,454.760477 C1297.0872,455.279052 1297.0872,457.223708 1297.86506,458.00157 L1300.069,458.260857 C1303.18045,458.649789 1306.2919,459.557295 1308.10691,461.372307 C1310.82943,464.354112 1310.95908,467.07663 1310.95908,470.706655 L1310.95908,508.17369 C1310.95908,514.396588 1311.08872,530.213122 1309.27371,534.880296 C1308.62549,536.306377 1306.55119,537.084239 1303.56938,537.47317 L1300.069,537.862101 C1299.29114,538.639964 1299.42078,540.454976 1300.32829,541.103194 C1304.86582,540.843907 1308.3662,540.714263 1313.81124,540.714263 C1318.60806,540.714263 1323.14559,540.843907 1328.97955,541.103194 C1329.88706,540.454976 1330.0167,538.899251 1329.23884,537.862101 L1325.21989,537.47317 C1321.97879,537.213883 1319.38592,536.436021 1318.60806,535.00994 C1316.40411,531.120628 1316.27447,514.266944 1316.27447,508.17369 L1316.27447,479.911359 C1316.27447,476.022047 1316.40411,473.040242 1316.92269,471.484517 L1317.18197,471.484517 C1319.90449,474.336679 1328.72027,484.967464 1332.22065,488.986419 L1362.29799,523.212361 C1373.57699,536.047089 1377.33666,540.58462 1378.89239,542.788563 C1380.31847,542.788563 1381.09633,542.140344 1381.35562,541.362482 C1380.96668,537.991745 1380.96668,522.564143 1380.96668,518.674831 L1380.96668,487.689982 Z" id="ONSDAGSMÄSSAN"></path>
        </g>
    </g>
</svg>